# xmcd CD database file
#
# Track frame offsets:
#	150
#	14527
#	26722
#	45122
#	59190
#	71570
#	87417
#	103082
#	120710
#	133005
#	148105
#	168990
#	184690
#
# Disc length: 2787 seconds
#
# Revision: 1
# Processed by: cddbd v1.5.2PL0 Copyright (c) Steve Scherf et al.
# Submitted via: CDex 1.51
#
DISCID=bb0ae10d
DTITLE=Miranda Lambert - Crazy Ex-Girlfriend (Target Package)
DYEAR=2007
DGENRE=Country
TTITLE0=Gunpowder and Lead
TTITLE1=Dry Town
TTITLE2=Famous In A Small Town
TTITLE3=Crazy Ex-Girlfriend
TTITLE4=Love Letters
TTITLE5=Desperation
TTITLE6=More Like Her
TTITLE7=Down
TTITLE8=Guilty In Here
TTITLE9=Getting Ready
TTITLE10=Easy From Now On
TTITLE11=Take It Out On Me (Bonus Track)
TTITLE12=I Just Really Miss You (Bonus Track)
EXTD=YEAR: 2007
EXTT0=
EXTT1=
EXTT2=
EXTT3=
EXTT4=
EXTT5=
EXTT6=
EXTT7=
EXTT8=
EXTT9=
EXTT10=
EXTT11=
EXTT12=
PLAYORDER=
